<svg width="1200" height="900" viewBox="0 0 1200 900" fill="none" xmlns="http://www.w3.org/2000/svg">
  <rect width="1200" height="900" rx="48" fill="#111B21"/>
  <rect x="96" y="96" width="1008" height="708" rx="36" fill="#1E2A33"/>
  <rect x="160" y="168" width="320" height="472" rx="28" fill="#F7F3ED"/>
  <rect x="520" y="168" width="520" height="220" rx="28" fill="#25D366" fill-opacity="0.18"/>
  <rect x="520" y="420" width="520" height="220" rx="28" fill="#FFFFFF" fill-opacity="0.12"/>
  <circle cx="220" cy="260" r="42" fill="#25D366"/>
  <rect x="280" y="232" width="150" height="18" rx="9" fill="#111B21"/>
  <rect x="280" y="270" width="110" height="14" rx="7" fill="#667085"/>
  <rect x="180" y="350" width="240" height="84" rx="16" fill="#FFFFFF"/>
  <rect x="200" y="372" width="150" height="16" rx="8" fill="#111B21"/>
  <rect x="200" y="398" width="110" height="12" rx="6" fill="#667085"/>
  <rect x="560" y="220" width="190" height="16" rx="8" fill="#FFFFFF" fill-opacity="0.9"/>
  <rect x="560" y="248" width="220" height="12" rx="6" fill="#DDE7E0"/>
  <rect x="560" y="470" width="220" height="16" rx="8" fill="#FFFFFF" fill-opacity="0.9"/>
  <rect x="560" y="498" width="180" height="12" rx="6" fill="#DDE7E0"/>
</svg>