<?xml version="1.0" encoding="UTF-8"?>
<!DOCTYPE svg PUBLIC "-//W3C//DTD SVG 1.1//EN" "http://www.w3.org/Graphics/SVG/1.1/DTD/svg11.dtd">
<!-- Creator: CorelDRAW 2026 -->
<svg xmlns="http://www.w3.org/2000/svg" xml:space="preserve" width="2.02739in" height="1.31739in" version="1.1" style="shape-rendering:geometricPrecision; text-rendering:geometricPrecision; image-rendering:optimizeQuality; fill-rule:evenodd; clip-rule:evenodd"
viewBox="0 0 527.26 342.61"
 xmlns:xlink="http://www.w3.org/1999/xlink"
 xmlns:xodm="http://www.corel.com/coreldraw/odm/2003">
 <defs>
  <style type="text/css">
   <![CDATA[
    .fil2 {fill:none}
    .fil1 {fill:#004EDF}
    .fil0 {fill:#0A60FF}
   ]]>
  </style>
    <clipPath id="id0">
     <path d="M3.64 76.58c-19.47,-53.04 44,-81.53 74.11,-28.9l77.49 173.33 44.76 -85.26c29.24,-55.71 86.66,-64.03 123.55,-3.36l43.6 88.74 81.73 -178.92c21.72,-47.55 97.44,-15.96 73.88,37.21l-113.71 243.36c-20.32,33.31 -64.5,21.98 -81.41,-14.1l-64.48 -125.58c-15.66,28.82 -69.54,143.89 -92.7,154.67 -26.34,12.28 -55.8,-8.04 -66.88,-35.93l-99.94 -225.28z"/>
    </clipPath>
 </defs>
 <g id="Layer_x0020_1">
  <metadata id="CorelCorpID_0Corel-Layer"/>
  <g id="_2472152979744">
   <path class="fil0" d="M3.64 76.58c-19.47,-53.04 44,-81.53 74.11,-28.9l77.49 173.33 44.76 -85.26c29.24,-55.71 86.66,-64.03 123.55,-3.36l43.6 88.74 81.73 -178.92c21.72,-47.55 97.44,-15.96 73.88,37.21l-113.71 243.36c-20.32,33.31 -64.5,21.98 -81.41,-14.1l-64.48 -125.58c-15.66,28.82 -69.54,143.89 -92.7,154.67 -26.34,12.28 -55.8,-8.04 -66.88,-35.93l-99.94 -225.28z"/>
   <g style="clip-path:url(#id0)">
    <g>
     <path id="_1" class="fil1" d="M139.47 183.27l79.28 192.44c0,0 -154.46,18.99 -158.59,7.43 -4.13,-11.56 -104.02,-198.95 -104.02,-224.54 0,-25.59 -35.5,-164.28 -25.59,-168.41 9.91,-4.13 75.12,-13.21 93.29,-13.21 18.16,0 85.86,-9.91 90.81,10.73 4.95,20.64 24.83,195.56 24.83,195.56z"/>
    </g>
   </g>
   <path class="fil2" d="M3.64 76.58c-19.47,-53.04 44,-81.53 74.11,-28.9l77.49 173.33 44.76 -85.26c29.24,-55.71 86.66,-64.03 123.55,-3.36l43.6 88.74 81.73 -178.92c21.72,-47.55 97.44,-15.96 73.88,37.21l-113.71 243.36c-20.32,33.31 -64.5,21.98 -81.41,-14.1l-64.48 -125.58c-15.66,28.82 -69.54,143.89 -92.7,154.67 -26.34,12.28 -55.8,-8.04 -66.88,-35.93l-99.94 -225.28z"/>
   <path class="fil0" d="M260.57 0c19.73,0 35.71,15.99 35.71,35.72 0,19.73 -15.99,35.72 -35.71,35.72 -19.73,0 -35.72,-15.99 -35.72,-35.72 0,-19.73 15.99,-35.72 35.72,-35.72z"/>
  </g>
 </g>
</svg>
